:SAMPLES-PER-SECOND 30
:FULLY-SPECIFIED
:DEGREES
121
root  -63.0766 37.6212 3.95226 -26.7176 -80.6839 32.721
RightUpLeg  -36.3454 -17.336 -8.51293
RightLeg  40.1792 1.93152 1.44488
RightFoot  -6.00023 -0.0778166 0.780613
RightToes  4.01633e-009 0 -3.6325e-017
Spine  93.5106 -21.1876 13.1562
Spine1  -9.77532 -6.52601 -3.14806
HEad  -36.9505 -8.99699 3.00862
LeftShoulder1  0.738571 -14.52 4.98349
LeftArm  -59.3665 -65.6198 -11.7256
LeftForeArm  -5.85461 -17.2247 0.913703
LeftHand  -0.0336313 3.43045 0.678124
RightShoulder  -0.0997635 9.81715 -10.5602
RightArm  -53.1647 52.7126 -5.27163
RightForeArm  -32.6049 10.7419 -3.45115
RightHand  -0.269297 10.4711 -2.37694
LeftUpLeg  -36.6521 -1.61189 -6.28527
LeftLeg  32.2328 -4.90788 -2.98683
LeftFoot  0.827121 -0.678212 6.3006
LeftToes  -1.95724e-009 9.62483e-011 3.51777e-011
122
root  -63.0545 37.8721 4.2085 -32.0451 -81.7481 37.8169
RightUpLeg  -35.0104 -15.8168 -9.19437
RightLeg  37.7868 2.13975 1.50418
RightFoot  -4.99837 -0.101634 1.20719
RightToes  4.01633e-009 0 -3.6325e-017
Spine  91.7312 -21.0613 12.7401
Spine1  -8.61628 -7.04972 -4.10543
HEad  -36.6402 -8.62257 3.18625
LeftShoulder1  1.09587 -14.4498 2.65933
LeftArm  -58.6351 -62.4305 -13.9826
LeftForeArm  -1.61961 -20.2159 -2.41486
LeftHand  -0.0712512 1.63214 2.01098
RightShoulder  0.129961 9.60125 -8.54044
RightArm  -60.0255 51.9894 -0.240367
RightForeArm  -21.226 17.5135 -0.0401831
RightHand  -0.292883 10.5198 -2.52874
LeftUpLeg  -35.2047 -1.01742 -6.59882
LeftLeg  30.139 -4.6063 -2.55304
LeftFoot  1.61504 -0.781997 6.79609
LeftToes  -1.95724e-009 9.62483e-011 3.51777e-011
123
root  -63.0562 38.0753 4.51617 -39.455 -82.9217 45.2838
RightUpLeg  -33.9429 -13.5444 -9.88911
RightLeg  35.2811 1.75293 1.06126
RightFoot  -4.36655 -0.202935 2.84064
RightToes  4.01633e-009 0 -3.6325e-017
Spine  89.2493 -20.5661 12.7297
Spine1  -8.00709 -7.24112 -4.37916
HEad  -34.9383 -8.74007 2.86691
LeftShoulder1  1.48352 -13.8446 -0.103316
LeftArm  -55.3567 -59.3743 -19.8059
LeftForeArm  4.01756 -24.7964 -5.28609
LeftHand  -0.0508206 1.88496 1.37078
RightShoulder  0.443854 8.70359 -5.48679
RightArm  -65.9437 51.5552 5.52547
RightForeArm  -7.89304 24.5602 5.92181
RightHand  -0.158412 8.96903 -1.67663
LeftUpLeg  -34.26 -1.06838 -6.68163
LeftLeg  28.4567 -3.48581 -1.71269
LeftFoot  2.04557 -0.791471 6.63002
LeftToes  -1.95724e-009 9.62483e-011 3.51777e-011
124
root  -63.0531 38.2631 4.84882 -55.5176 -84.4424 60.4756
RightUpLeg  -32.1507 -11.2598 -10.4797
RightLeg  32.8381 2.0991 1.19893
RightFoot  -3.495 -0.279636 3.73803
RightToes  4.01633e-009 0 -3.6325e-017
Spine  86.627 -19.4317 12.4781
Spine1  -6.07497 -6.88821 -4.63793
HEad  -35.8239 -8.95729 2.79175
LeftShoulder1  1.65631 -13.5859 -1.41497
LeftArm  -49.397 -55.5869 -26.5718
LeftForeArm  5.30908 -30.2431 -6.30393
LeftHand  -0.0370343 1.80248 0.895314
RightShoulder  0.881572 7.63081 -0.599046
RightArm  -58.0088 51.5714 10.0553
RightForeArm  -10.7393 31.1425 7.41658
RightHand  -0.275114 10.3087 -2.4345
LeftUpLeg  -32.5208 -0.933071 -6.47926
LeftLeg  27.2458 -1.7601 -0.653933
LeftFoot  2.13236 -0.767241 6.37808
LeftToes  -1.95724e-009 9.62483e-011 3.51777e-011
125
root  -63.062 38.3866 5.22046 -83.6357 -85.4309 88.131
RightUpLeg  -31.163 -9.65381 -10.7486
RightLeg  30.7376 3.31242 1.87599
RightFoot  -2.38119 -0.326107 3.94991
RightToes  4.01633e-009 0 -3.6325e-017
Spine  83.7546 -18.2951 11.9468
Spine1  -5.22907 -6.74196 -5.46124
HEad  -33.627 -9.23938 3.05915
LeftShoulder1  2.01424 -12.5591 -4.66585
LeftArm  -42.2523 -51.5788 -30.7843
LeftForeArm  6.17026 -35.1006 -7.54058
LeftHand  -0.0458962 1.48319 1.1501
RightShoulder  1.09707 6.19692 3.27304
RightArm  -49.2474 50.7661 19.0092
RightForeArm  -10.3916 38.2525 9.44955
RightHand  -0.418688 10.4191 -3.4778
LeftUpLeg  -31.7404 -2.66277 -5.63906
LeftLeg  27.0726 1.36285 1.09911
LeftFoot  1.92258 -0.566768 4.76391
LeftToes  -1.95724e-009 9.62483e-011 3.51777e-011
126
root  -63.1478 38.4692 5.69165 -116.074 -85.0545 119.565
RightUpLeg  -29.7041 -9.36919 -10.8946
RightLeg  29.0525 5.66385 3.15201
RightFoot  -1.75825 -0.385131 4.4574
RightToes  4.01633e-009 0 -3.6325e-017
Spine  80.367 -17.2777 11.8355
Spine1  -3.9187 -6.70572 -5.40255
HEad  -31.5884 -9.89416 2.70894
LeftShoulder1  2.2848 -10.8421 -8.45022
LeftArm  -36.2884 -47.9591 -35.2395
LeftForeArm  8.36816 -40.3252 -8.97107
LeftHand  -0.0473127 0.885396 1.09874
RightShoulder  1.16232 4.39653 7.15212
RightArm  -40.8013 48.9143 27.0766
RightForeArm  -8.3064 44.731 11.6297
RightHand  -0.388701 10.0709 -3.31547
LeftUpLeg  -30.8877 -6.00053 -4.28947
LeftLeg  27.9756 3.86939 2.56371
LeftFoot  1.77532 -0.305518 2.5809
LeftToes  -1.95724e-009 9.62483e-011 3.51777e-011
127
root  -63.2831 38.588 6.17267 -141.762 -82.9662 143.883
RightUpLeg  -27.8155 -8.7194 -11.2222
RightLeg  27.0758 8.3227 4.36961
RightFoot  -0.712371 -0.421794 4.47331
RightToes  4.01633e-009 0 -3.6325e-017
Spine  76.638 -15.1853 11.2501
Spine1  -1.29133 -6.04732 -4.47987
HEad  -30.9734 -9.92633 3.30808
LeftShoulder1  2.37745 -9.29811 -11.3911
LeftArm  -31.0381 -44.8125 -38.9069
LeftForeArm  9.66382 -44.7261 -10.4301
LeftHand  -0.06476 0.0820808 1.42309
RightShoulder  1.18353 2.67166 12.1558
RightArm  -34.5132 46.6261 30.5347
RightForeArm  -7.41943 49.6002 13.737
RightHand  -0.459396 9.78134 -3.90404
LeftUpLeg  -29.8968 -10.2729 -2.57155
LeftLeg  29.291 3.2923 2.31966
LeftFoot  2.06481 -0.0463005 0.285672
LeftToes  -1.95724e-009 9.62483e-011 3.51777e-011
128
root  -63.4631 38.6611 6.64632 -155.373 -79.6136 156.098
RightUpLeg  -26.1593 -6.9191 -11.6812
RightLeg  25.3137 10.4431 5.12087
RightFoot  -0.109122 -0.537421 5.45324
RightToes  4.01633e-009 0 -3.6325e-017
Spine  72.7967 -12.7868 10.3606
Spine1  1.3008 -5.08371 -4.0238
HEad  -31.1505 -10.4778 2.91318
LeftShoulder1  2.36349 -7.94844 -13.6879
LeftArm  -26.7352 -41.6398 -41.6978
LeftForeArm  12.6397 -49.022 -11.9967
LeftHand  -0.0620809 -0.126943 1.32971
RightShoulder  1.0049 0.928405 15.8886
RightArm  -29.6137 42.2806 34.3454
RightForeArm  -4.55897 54.7451 16.5255
RightHand  -0.410185 8.9615 -3.69337
LeftUpLeg  -29.0423 -15.5513 -0.258206
LeftLeg  31.0265 -1.0249 -0.327725
LeftFoot  1.10409 0.214837 -2.06962
LeftToes  -1.95724e-009 9.62483e-011 3.51777e-011
129
root  -63.689 38.7291 7.07556 -164.363 -74.5126 163.542
RightUpLeg  -24.7281 -3.7951 -11.9129
RightLeg  23.5265 12.7952 5.5949
RightFoot  0.467595 -0.668654 6.48594
RightToes  4.01633e-009 0 -3.6325e-017
Spine  69.4301 -9.25905 8.37704
Spine1  3.711 -3.45065 -3.60396
HEad  -30.2984 -10.6355 3.43893
LeftShoulder1  2.2132 -6.35541 -15.6876
LeftArm  -22.5093 -38.1563 -43.8361
LeftForeArm  15.4751 -53.4398 -13.9625
LeftHand  -0.0766339 -0.64738 1.56167
RightShoulder  0.680293 -0.59526 16.7606
RightArm  -26.1258 35.0935 40.9546
RightForeArm  -0.539848 60.9314 20.886
RightHand  -0.549533 9.42378 -4.70065
LeftUpLeg  -26.9789 -19.5913 1.52763
LeftLeg  32.1804 -6.78596 -4.2451
LeftFoot  -1.68935 0.341648 -3.93777
LeftToes  -1.95724e-009 9.62483e-011 3.51777e-011
130
root  -64.0599 38.7452 7.72182 -168.315 -68.8492 166.91
RightUpLeg  -24.588 -3.139 -11.9495
RightLeg  22.1671 17.7139 6.69185
RightFoot  0.980706 -0.816043 7.62168
RightToes  4.01633e-009 0 -3.6325e-017
Spine  64.7307 -6.2203 6.77849
Spine1  5.59979 -1.85408 -3.64587
HEad  -28.867 -10.8608 3.61511
LeftShoulder1  2.15101 -5.38092 -17.5134
LeftArm  -18.3875 -33.9277 -44.7957
LeftForeArm  17.5694 -57.2116 -16.0785
LeftHand  -0.0748086 0.0709674 1.64193
RightShoulder  0.409544 -1.86854 20.0153
RightArm  -23.6221 29.3315 41.7947
RightForeArm  3.54543 64.6878 24.647
RightHand  -0.576544 8.73155 -5.0933
LeftUpLeg  -25.1419 -23.2954 2.09929
LeftLeg  33.0438 -11.0962 -7.34063
LeftFoot  -5.6078 0.220381 -3.47897
LeftToes  -1.95724e-009 9.62483e-011 3.51777e-011
131
root  -64.5825 38.689 8.51418 -168.072 -63.4444 167.9
RightUpLeg  -26.4706 -3.83369 -12.1766
RightLeg  21.2159 23.0407 7.48788
RightFoot  0.936327 -1.04445 9.72927
RightToes  4.01633e-009 0 -3.6325e-017
Spine  58.0818 -3.81817 5.71261
Spine1  6.58262 -0.592607 -3.59349
HEad  -25.5247 -11.7548 4.2446
LeftShoulder1  2.27621 -5.32826 -19.4587
LeftArm  -15.0619 -28.9219 -45.1643
LeftForeArm  20.6524 -60.5412 -18.3153
LeftHand  -0.0819729 -0.612104 1.66453
RightShoulder  0.0137048 -3.42313 23.689
RightArm  -21.266 23.5442 40.3248
RightForeArm  7.98457 67.7299 28.6797
RightHand  -0.398977 8.21532 -3.78894
LeftUpLeg  -24.6634 -24.486 1.56185
LeftLeg  32.4608 -12.0015 -7.81226
LeftFoot  -9.55358 0.0670917 -0.962097
LeftToes  -1.95724e-009 9.62483e-011 3.51777e-011
132
root  -64.9613 38.8075 9.11357 -172.39 -58.3145 171.711
RightUpLeg  -24.6169 -4.35438 -10.1322
RightLeg  16.7906 28.8265 6.12866
RightFoot  1.24212 -1.46154 13.2984
RightToes  4.01633e-009 0 -3.6325e-017
Spine  53.3901 -2.62754 3.55629
Spine1  9.06798 -0.273602 -3.85899
HEad  -22.0632 -9.16537 5.69434
LeftShoulder1  1.73457 -2.47864 -22.5645
LeftArm  -13.2622 -25.276 -42.1224
LeftForeArm  22.5714 -64.221 -21.6907
LeftHand  -0.0809541 -0.179703 1.71637
RightShoulder  0.390286 -2.03632 20.3283
RightArm  -20.7254 16.8082 45.83
RightForeArm  13.9032 70.5954 33.6554
RightHand  -0.44808 7.1651 -4.46235
LeftUpLeg  -21.3491 -22.2603 0.99821
LeftLeg  29.9254 -9.43895 -5.48577
LeftFoot  -11.8778 0.0658669 0.191033
LeftToes  -1.95724e-009 9.62483e-011 3.51777e-011
133
root  -65.3269 38.9385 9.80425 -174.549 -54.4164 173.183
RightUpLeg  -22.3563 -7.08646 -8.90558
RightLeg  11.6304 34.5232 4.01478
RightFoot  0.950594 -1.83529 16.9866
RightToes  4.01633e-009 0 -3.6325e-017
Spine  49.9071 -2.44318 1.97176
Spine1  9.33121 -0.5292 -4.70439
HEad  -18.9918 -7.96908 6.77696
LeftShoulder1  1.51336 -1.69049 -22.8258
LeftArm  -12.8445 -19.8462 -41.007
LeftForeArm  27.3602 -68.076 -26.3002
LeftHand  -0.0449686 -0.122612 0.975527
RightShoulder  0.204376 -2.75037 21.9527
RightArm  -18.4077 12.3037 46.6809
RightForeArm  19.1919 72.5219 38.0401
RightHand  -0.322556 5.91294 -3.63183
LeftUpLeg  -19.5817 -18.9159 -0.512958
LeftLeg  29.2406 -7.90111 -4.4244
LeftFoot  -10.6584 0.0500165 2.6408
LeftToes  -1.95724e-009 9.62483e-011 3.51777e-011
